<?xml version="1.0" standalone="no"?>
<!DOCTYPE svg PUBLIC "-//W3C//DTD SVG 20010904//EN"
 "http://www.w3.org/TR/2001/REC-SVG-20010904/DTD/svg10.dtd">
<svg version="1.0" xmlns="http://www.w3.org/2000/svg"
 width="512.000000pt" height="512.000000pt" viewBox="0 0 512.000000 512.000000"
 preserveAspectRatio="xMidYMid meet">
<metadata>
Created by potrace 1.16, written by Peter Selinger 2001-2019
</metadata>
<g transform="translate(0.000000,512.000000) scale(0.100000,-0.100000)"
fill="#000000" stroke="none">
<path d="M1093 4010 c-48 -19 -58 -53 -61 -212 l-4 -148 -76 0 c-87 0 -139
-20 -159 -60 -10 -20 -13 -268 -13 -1136 0 -1080 1 -1112 19 -1135 l19 -24
749 -5 c606 -4 753 -8 773 -19 14 -7 49 -36 78 -65 l53 -51 812 -3 c535 -2
824 1 847 7 20 6 49 24 65 41 l30 31 3 524 3 523 113 4 c105 3 117 5 140 27
l26 24 0 208 c0 205 0 208 -24 236 -23 27 -28 28 -140 31 l-116 4 0 48 c0 47
0 47 38 54 20 3 72 6 115 6 69 0 81 3 102 25 25 24 25 24 25 240 0 216 0 216
-25 240 -23 24 -30 25 -140 25 l-115 0 0 115 c0 120 -8 153 -43 174 -35 22
-339 62 -525 68 -415 14 -797 -79 -1022 -249 -28 -21 -55 -38 -61 -38 -6 0
-39 26 -73 57 -78 73 -202 153 -319 208 -240 112 -599 201 -902 225 -144 11
-163 11 -192 0z m417 -154 c188 -26 461 -107 626 -185 150 -72 222 -121 299
-202 l60 -64 -2 -960 c0 -528 -2 -961 -2 -962 -1 -1 -34 23 -73 53 -89 67
-235 143 -371 193 -105 39 -304 93 -392 107 -27 4 -52 8 -55 9 -7 2 -89 15
-135 20 -22 3 -98 8 -170 11 -71 4 -131 7 -132 8 -2 2 -5 1920 -3 2006 0 5
240 -19 350 -34z m2365 -181 c17 -2 66 -9 110 -15 44 -6 88 -13 98 -16 16 -5
17 -65 17 -1075 0 -1015 -1 -1070 -17 -1065 -196 60 -602 92 -857 67 -213 -21
-413 -75 -544 -147 l-62 -35 2 1003 3 1002 59 48 c151 121 391 206 676 237 80
9 450 6 515 -4z m-2855 -1014 c0 -828 1 -860 19 -882 18 -23 26 -24 202 -31
368 -14 671 -83 929 -213 94 -48 212 -132 170 -121 -14 3 -343 6 -732 6 l-708
0 0 1050 0 1050 60 0 60 0 0 -859z m3370 529 l0 -150 -49 0 c-27 0 -63 -3 -80
-6 l-31 -6 0 156 0 156 80 0 80 0 0 -150z m2 -640 l3 -150 -82 0 -83 0 0 150
0 150 79 0 80 0 3 -150z m-682 -1110 c121 -13 259 -36 333 -57 57 -16 57 -16
57 -54 0 -24 -5 -39 -12 -39 -191 -4 -1368 -3 -1368 1 0 17 151 83 250 110
164 44 515 62 740 39z"/>
<path d="M3546 3278 c-84 -23 -171 -145 -196 -276 -33 -168 17 -302 147 -393
l22 -15 -9 -260 c-5 -142 -12 -294 -14 -336 -3 -43 0 -91 5 -107 13 -37 49
-61 89 -61 77 0 104 47 96 168 -3 48 -8 164 -11 257 -3 94 -8 208 -11 255 l-6
85 50 32 c89 59 132 148 132 277 0 166 -77 318 -185 367 -45 21 -54 21 -109 7z"/>
<path d="M2816 3254 c-9 -8 -16 -16 -17 -17 0 -2 -3 -57 -14 -303 -7 -156 7
-200 90 -280 l63 -61 -8 -244 c-5 -134 -12 -288 -15 -342 -7 -134 16 -177 95
-177 87 0 99 35 89 265 -4 99 -10 251 -14 338 l-7 158 50 48 c34 33 56 65 72
107 21 57 22 68 16 265 -3 114 -9 214 -12 223 -12 31 -41 39 -64 16 -19 -19
-20 -33 -20 -210 0 -174 -1 -190 -19 -199 -13 -7 -23 -7 -34 2 -13 10 -16 38
-18 157 -4 216 -8 249 -30 260 -14 8 -23 6 -39 -10 -19 -19 -20 -33 -20 -210
0 -177 -1 -190 -19 -200 -25 -13 -27 -13 -45 6 -13 13 -16 46 -16 204 0 158
-3 191 -16 204 -8 9 -19 16 -24 16 -5 0 -16 -7 -24 -16z"/>
<path d="M4241 3186 c0 -83 4 -146 9 -146 5 0 6 7 3 17 -5 12 -3 14 8 8 12 -7
12 -6 1 7 -11 14 -10 16 8 11 13 -3 19 -11 16 -19 -4 -10 3 -14 25 -14 17 0
28 4 24 9 -3 5 -1 13 5 16 6 4 9 1 8 -6 -2 -7 5 -15 15 -17 9 -2 17 2 17 8 0
6 -4 9 -9 6 -8 -6 -21 15 -21 35 0 16 18 10 23 -8 3 -13 5 -14 6 -3 0 8 -6 24
-15 35 -12 16 -16 17 -23 6 -5 -8 -7 -21 -3 -29 3 -10 1 -13 -7 -8 -16 10 -7
62 10 58 8 -1 6 4 -5 12 -12 10 -16 21 -12 33 6 15 11 10 27 -24 11 -24 21
-43 22 -43 11 0 3 42 -9 47 -8 3 -14 12 -14 20 0 13 2 13 17 2 14 -12 16 -12
11 1 -2 8 -14 16 -26 16 -12 1 -28 6 -35 13 -8 6 -17 7 -21 3 -4 -4 -6 -1 -4
7 2 7 -3 16 -9 18 -7 3 -13 -2 -13 -9 0 -8 6 -20 13 -27 7 -9 7 -11 1 -8 -7 4
-15 0 -18 -9 -8 -21 -8 -21 10 -28 11 -4 15 -2 11 8 -3 8 1 17 9 20 24 9 27 7
15 -8 -7 -8 -8 -17 -3 -20 10 -6 9 -30 -1 -62 -8 -23 -37 -28 -37 -6 0 8 6 12
15 8 11 -4 14 1 13 19 -1 13 -4 22 -6 20 -3 -2 -12 0 -22 5 -13 7 -17 22 -17
64 l0 54 34 -3 c18 -1 37 -6 41 -10 4 -5 -1 -5 -10 -2 -10 4 -18 3 -18 -1 0
-11 58 -34 70 -27 13 8 13 55 0 55 -5 0 -10 5 -10 11 0 5 5 7 10 4 6 -3 10 0
10 8 0 10 -17 14 -70 16 l-70 2 1 -145z"/>
</g>
</svg>
